
<svg xmlns="http://www.w3.org/2000/svg" version="1.1" xml:space="preserve" x="0" y="0" id="svg2" viewBox="15.32 15.4 14.38 13.96">
    <defs id="defs4">
        <style type="text/css" id="style6">
            path{stroke:#000;stroke-width:3;stroke-linecap:round;stroke-linejoin:round;fill:none}
        </style>
    </defs>
    <path style="opacity:1;fill:#fff;fill-opacity:1;stroke:#000;stroke-width:.99999988;stroke-linecap:round;stroke-linejoin:round;stroke-miterlimit:4;stroke-dasharray:none;stroke-dashoffset:0;stroke-opacity:1" id="path3344" d="M22.695 15.907a6.69 6.479 0 0 1 6.505 6.618 6.69 6.479 0 0 1-6.797 6.336 6.69 6.479 0 0 1-6.583-6.544 6.69 6.479 0 0 1 6.721-6.412"/>
    <path d="M22.633 18.47a4.053 3.925 0 0 1 3.941 4.01 4.053 3.925 0 0 1-4.117 3.84 4.053 3.925 0 0 1-3.988-3.966 4.053 3.925 0 0 1 4.072-3.884" id="path3346" style="opacity:1;fill:none;fill-opacity:1;stroke:#000;stroke-width:.99999988;stroke-linecap:round;stroke-linejoin:round;stroke-miterlimit:4;stroke-dasharray:none;stroke-dashoffset:0;stroke-opacity:1"/>
</svg>
