<svg xmlns="http://www.w3.org/2000/svg" xml:space="preserve" width="48" height="48" viewBox="0 0 45 45"><path stroke-miterlimit="10" d="M3.27 17.307c5.659 1.951 7.11 12.984 13.858 10.615 5.326-1.872 6.353-8.993 11.735-10.806" style="fill:none;stroke:#000;stroke-width:1.66639447;stroke-linecap:round;stroke-miterlimit:10"/><path stroke-miterlimit="10" d="M28.102 28.08c-5.605-1.589-5.928-9.468-10.95-11.056-6.574-2.08-8.8 10.374-14.675 11.21" style="fill:none;stroke:#000;stroke-width:1.66639447;stroke-linecap:round;stroke-miterlimit:10"/><text x="15.064" y="-5.456" style="font-size:6.66557741px;font-family:Helvetica,Arial,sans-serif;text-anchor:middle;stroke:#000;stroke-width:.5554648" transform="scale(1.04023 .96133)"/><text x="-13.957" y="-55.589" style="font-size:8.36520386px;font-family:Helvetica,Arial,sans-serif" text-anchor="left"/><path stroke-miterlimit="10" d="M17.024 17.055c5.658 1.951 7.11 12.984 13.857 10.615 5.326-1.872 6.353-8.993 11.735-10.806" style="fill:none;stroke:#000;stroke-width:1.66639447;stroke-linecap:round;stroke-miterlimit:10"/><path stroke-miterlimit="10" d="M42.422 28.143c-5.606-1.589-5.928-9.468-10.951-11.056-6.573-2.08-8.799 10.374-14.674 11.21" style="fill:none;stroke:#000;stroke-width:1.66639447;stroke-linecap:round;stroke-miterlimit:10"/></svg>